# xmcd
#
# Track frame offsets:
#	150
#	11838
#	27473
#	40537
#	57064
#	69261
#	83655
#	94867
#	115970
#
# Disc length: 1701 seconds
# Revision: 0
# Processed by: cddbd v1.5.2PL0 Copyright (c) Steve Scherf et al.
# Submitted via: dBpowerAMP V12.0
#
DISCID=6706a309
DTITLE=Valery Levine - Paper Romance
DYEAR=2016
DGENRE=Country
TTITLE0=House Of Cards
TTITLE1=Texas Rain
TTITLE2=Barbie Head
TTITLE3=Love Upside Down
TTITLE4=Game Over
TTITLE5=Mermaid Radio
TTITLE6=Red Cat
TTITLE7=Old Circus Time
TTITLE8=Wicked Wind
EXTD=
EXTT0=
EXTT1=
EXTT2=
EXTT3=
EXTT4=
EXTT5=
EXTT6=
EXTT7=
EXTT8=
PLAYORDER=
